<svg width="47" height="48" viewBox="0 0 47 48" fill="none" xmlns="http://www.w3.org/2000/svg">
<path fill-rule="evenodd" clip-rule="evenodd" d="M43.1363 10.6727L27.3881 15.5426V1.18585C27.3881 -0.395284 19.5457 -0.395284 19.5457 1.18585V15.8588H2.91217C-0.376593 15.8588 -1.13554 20.5389 1.96349 21.6141L3.67111 43.6235C3.86085 45.6474 5.56848 47.2285 7.59233 47.2285H39.4048C41.4286 47.2285 43.1363 45.6474 43.2627 43.6235L45.0336 20.8552C45.0969 20.286 44.6541 19.78 44.0849 19.78H33.2067L44.9071 16.3648C48.7018 15.2263 46.8677 9.471 43.1363 10.6727ZM25.4275 27.6224C25.4275 30.2155 21.5063 30.2155 21.5063 27.6224V2.19778H25.4275V27.6224Z" fill="black"/>
</svg>
