<svg width="56" height="34" viewBox="0 0 56 34" fill="none" xmlns="http://www.w3.org/2000/svg">
<path d="M10.515 6L6.14001 20H49.42L45.045 6H10.515Z" fill="black"/>
<path d="M7.48023 0L0.207764 20H4.04476L8.82547 4.70166C8.88903 4.49824 9.01592 4.32045 9.18764 4.19423C9.35936 4.06801 9.56692 3.99996 9.78003 4H45.78C45.9932 3.99995 46.2007 4.068 46.3724 4.19423C46.5442 4.32045 46.6711 4.49824 46.7346 4.70166L51.5154 20H55.3523L48.0798 0H7.48023Z" fill="black"/>
<path d="M51.78 32H3.78004V34H51.78V32Z" fill="black"/>
<path d="M55.56 22H0L1.6 30H53.96L55.56 22Z" fill="black"/>
</svg>
