<svg width="78" height="69" viewBox="0 0 78 69" fill="none" xmlns="http://www.w3.org/2000/svg">
<path d="M1.82942 0.00204067C-0.340211 -0.0661652 -0.707626 3.07059 1.41915 3.50423L8.0475 4.95729L9.75088 13.0483C9.75177 13.0584 9.75354 13.0584 9.75456 13.0651L18.2023 51.2467C18.3818 52.0572 19.1017 52.6342 19.9334 52.6342H67.7772C70.1762 52.6696 70.1762 49.06 67.7772 49.0958H21.3579L19.7272 41.7234H70.1919C71.0235 41.7235 71.7434 41.1467 71.923 40.3362L77.9576 13.0634C78.202 11.959 77.3597 10.9124 76.2265 10.9124C55.1249 10.9129 34.0235 10.9124 12.9223 10.9024L11.2812 3.10834C11.1379 2.42685 10.6074 1.89259 9.92581 1.74354L2.18092 0.0468333C2.06565 0.0200859 1.94793 0.00334343 1.8295 0L1.82942 0.00204067ZM31.2752 56.3702C27.8066 56.3702 24.962 59.2211 24.962 62.6851C24.9619 66.1488 27.8065 69 31.2752 69C34.7439 69 37.5885 66.1488 37.5885 62.6851C37.5885 59.2211 34.7439 56.3702 31.2752 56.3702ZM56.7014 56.3702C53.2328 56.3702 50.3882 59.2211 50.3882 62.6851C50.3881 66.1488 53.2327 69 56.7014 69C60.1702 69 63.0148 66.1488 63.0147 62.6851C63.0147 59.2211 60.1701 56.3702 56.7014 56.3702Z" fill="black"/>
</svg>
