<svg width="40" height="40" viewBox="0 0 40 40" fill="none" xmlns="http://www.w3.org/2000/svg">
<path d="M37.0045 11.4012L11.7993 6.44436L11.0687 2.48434C10.8552 1.3235 9.86477 0.481018 8.71349 0.481018H3.02604C1.81806 0.481018 0.838623 1.49225 0.838623 2.73945C0.838623 3.98664 1.81806 4.99788 3.02604 4.99788H7.07905L7.8912 9.39983C7.89592 9.43506 10.5789 25.781 10.5789 25.781C10.8894 27.6709 12.651 29.2084 14.5056 29.2084H34.9906C36.8657 29.2084 38.5734 27.6431 38.7973 25.7191L39.975 15.5959C40.2012 13.6495 38.8687 11.7679 37.0045 11.4012Z" fill="#FCFEFF"/>
<path d="M15.3163 31.5847C13.1648 31.5847 11.4143 33.3919 11.4143 35.6135C11.4143 37.8351 13.1648 39.6424 15.3163 39.6424C17.468 39.6424 19.2184 37.8351 19.2184 35.6135C19.2184 33.3919 17.468 31.5847 15.3163 31.5847Z" fill="#FCFEFF"/>
<path d="M32.4925 31.5847C30.3408 31.5847 28.5903 33.3919 28.5903 35.6135C28.5903 37.8351 30.3408 39.6424 32.4925 39.6424C34.6442 39.6424 36.3947 37.8351 36.3947 35.6135C36.3947 33.3919 34.6442 31.5847 32.4925 31.5847Z" fill="#FCFEFF"/>
</svg>
