<svg width="105" height="104" viewBox="0 0 105 104" fill="none" xmlns="http://www.w3.org/2000/svg">
<path d="M69.1219 34.9988L69.1153 35.0053C63.8843 40.2476 59.3874 44.9622 54.9024 49.6643C51.771 52.9471 48.6455 56.2239 45.2801 59.6698L44.3045 60.6689L43.2383 59.767L34.9735 52.776L34.9561 52.7613L34.9391 52.746C34.5223 52.3712 34.0345 52.0838 33.5045 51.9009C32.9746 51.718 32.4133 51.6434 31.854 51.6815C31.2947 51.7195 30.7488 51.8695 30.2485 52.1225C29.7482 52.3754 29.3038 52.7263 28.9416 53.1541C28.5794 53.5821 28.3068 54.0783 28.14 54.6135C27.9731 55.1487 27.9154 55.712 27.9703 56.2699C28.0252 56.8278 28.1915 57.369 28.4594 57.8615L27.1418 58.5783L28.4594 57.8615C28.7273 58.3539 29.0913 58.7875 29.5299 59.1367L29.5475 59.1507L29.5646 59.1652L41.8878 69.5924C42.6905 70.2717 43.7194 70.6241 44.7701 70.5797C45.8207 70.5352 46.8162 70.0972 47.5587 69.3526L47.559 69.3522C52.6586 64.2417 57.0208 59.6486 61.3662 55.0717L61.4467 54.9868C65.7633 50.4402 70.0682 45.9059 75.0491 40.9142L75.0547 40.9086L75.0604 40.903C75.6614 40.3133 76.0707 39.5562 76.2349 38.7304C76.3991 37.9046 76.3106 37.0484 75.9809 36.2737C75.6513 35.4989 75.0957 34.8415 74.3868 34.3872C73.678 33.933 72.8488 33.703 72.0074 33.7271L69.1219 34.9988ZM69.1219 34.9988L69.1283 34.9921M69.1219 34.9988L69.1283 34.9921M69.1283 34.9921C69.8871 34.2126 70.9194 33.7589 72.0068 33.7271L69.1283 34.9921Z" stroke="black" stroke-width="3"/>
<circle cx="52.084" cy="52" r="49.5" stroke="black" stroke-width="5"/>
</svg>
