<svg width="46" height="35" viewBox="0 0 46 35" fill="none" xmlns="http://www.w3.org/2000/svg">
<path d="M46 22.3403C46 18.2446 42.5434 14.8404 37.9699 14.2021L38.0231 12.9787C38.0231 12.2872 37.8104 11.6489 37.2786 11.117C36.8 10.6383 36.1618 10.3723 35.4705 10.3723H20.3676C19.6763 10.3723 19.0382 10.6383 18.5595 11.117C18.0809 11.5957 17.815 12.2872 17.815 12.9787L17.9746 18.8829H1.06358C0.478613 18.8829 0 19.3616 0 19.9467V25.2658C0 25.8509 0.478613 26.3296 1.06358 26.3296H2.28671V26.8615H1.38266C0.797688 26.8615 0.319075 27.3402 0.319075 27.9253V33.2444C0.319075 33.8295 0.797688 34.3082 1.38266 34.3082H25.7919H32.1202C34.5133 34.3082 36.5873 32.7657 37.3318 30.5317C42.1711 30.1593 46 26.6487 46 22.3403ZM2.12717 21.0105H19.0913H24.4093V24.202H23.1861H3.35029H2.12717V21.0105ZM2.44624 28.9891H3.35029H23.1329H24.7283V32.1806H2.44624V28.9891ZM37.5977 28.404L37.8636 16.3829C41.2671 16.968 43.8197 19.4148 43.8197 22.3935C43.8728 25.3722 41.1075 27.9253 37.5977 28.404Z" fill="black"/>
<path d="M7.28551 13.8297H7.87048V14.468C7.87048 15.0531 8.34909 15.5318 8.93406 15.5318C9.51903 15.5318 9.99764 15.0531 9.99764 14.468V13.8829H10.5826C11.1676 13.8829 11.6462 13.4042 11.6462 12.8191C11.6462 12.234 11.1676 11.7552 10.5826 11.7552H9.99764V11.1701C9.99764 10.585 9.51903 10.1063 8.93406 10.1063C8.34909 10.1063 7.87048 10.585 7.87048 11.1701V11.7552H7.28551C6.70054 11.7552 6.22192 12.234 6.22192 12.8191C6.22192 13.4042 6.70054 13.8297 7.28551 13.8297Z" fill="black"/>
<path d="M31.2162 6.38297H31.8011V7.02127C31.8011 7.60637 32.2797 8.08508 32.8647 8.08508C33.4497 8.08508 33.9283 7.60637 33.9283 7.02127V6.43617H34.5133C35.0982 6.43617 35.5769 5.95745 35.5769 5.37235C35.5769 4.78725 35.0982 4.30853 34.5133 4.30853H33.9283V3.72343C33.9283 3.13833 33.4497 2.65961 32.8647 2.65961C32.2797 2.65961 31.8011 3.13833 31.8011 3.72343V4.30853H31.2162C30.6312 4.30853 30.1526 4.78725 30.1526 5.37235C30.1526 5.95745 30.6312 6.38297 31.2162 6.38297Z" fill="black"/>
<path d="M19.5168 3.72337H20.1017V4.36166C20.1017 4.94676 20.5804 5.42548 21.1653 5.42548C21.7503 5.42548 22.2289 4.94676 22.2289 4.36166V3.77656H22.8139C23.3988 3.77656 23.8775 3.29784 23.8775 2.71274C23.8775 2.12764 23.3988 1.64892 22.8139 1.64892H22.2289V1.06382C22.2289 0.478719 21.7503 0 21.1653 0C20.5804 0 20.1017 0.478719 20.1017 1.06382V1.64892H19.5168C18.9318 1.64892 18.4532 2.12764 18.4532 2.71274C18.4532 3.29784 18.9318 3.72337 19.5168 3.72337Z" fill="black"/>
</svg>
