<svg width="231" height="153" viewBox="0 0 231 153" fill="none" xmlns="http://www.w3.org/2000/svg">
<path d="M214.649 65.1185L208.672 40.3436C210.306 39.9839 211.532 38.4815 211.532 36.6816V32.6871C211.532 24.0141 204.723 16.9584 196.354 16.9584H169.13V8.71888C169.13 4.45106 165.78 0.979248 161.661 0.979248H22.8877C18.7693 0.979248 15.419 4.45106 15.419 8.71888V76.6275C15.419 78.6956 17.0369 80.3726 19.033 80.3726C21.0286 80.3726 22.647 78.696 22.647 76.6275V8.71888C22.647 8.58107 22.7547 8.46943 22.8877 8.46943H161.661C161.794 8.46943 161.901 8.58107 161.901 8.71888V76.6285C161.901 78.6965 163.519 80.3736 165.515 80.3736C167.511 80.3736 169.129 78.697 169.129 76.6285V72.3831H211.76C211.764 72.3831 211.767 72.384 211.77 72.384C211.774 72.384 211.777 72.3835 211.78 72.3835C217.026 72.3873 221.48 75.9553 223.01 80.872H211.773C209.777 80.872 208.159 82.5486 208.159 84.6171V92.6062C208.159 99.0766 213.238 104.34 219.482 104.34H223.578V120.818H214.129C211.024 111.53 202.504 104.839 192.499 104.839C182.493 104.839 173.972 111.53 170.869 120.818H169.128V92.6057C169.128 90.5377 167.511 88.8606 165.514 88.8606C163.519 88.8606 161.9 90.5372 161.9 92.6057V120.817H86.9208C83.8166 111.529 75.2961 104.838 65.2908 104.838C55.2854 104.838 46.7645 111.529 43.6608 120.817H22.8877C22.7547 120.817 22.647 120.705 22.647 120.568V112.329H38.3071C40.3028 112.329 41.9211 110.652 41.9211 108.583C41.9211 106.515 40.3032 104.838 38.3071 104.838H3.61402C1.61835 104.838 0 106.515 0 108.583C0 110.652 1.6179 112.329 3.61402 112.329H15.4194V120.568C15.4194 124.835 18.7697 128.307 22.8882 128.307H42.4094C42.4085 128.39 42.403 128.473 42.403 128.557C42.403 141.635 52.6708 152.274 65.2908 152.274C77.9107 152.274 88.1785 141.635 88.1785 128.557C88.1785 128.473 88.1731 128.39 88.1722 128.307H169.617C169.616 128.39 169.611 128.473 169.611 128.557C169.611 141.635 179.879 152.274 192.499 152.274C205.118 152.274 215.386 141.635 215.386 128.557C215.386 128.473 215.381 128.39 215.38 128.307H227.192C229.188 128.307 230.806 126.631 230.806 124.562V84.6162C230.807 74.7538 223.785 66.5597 214.649 65.1185ZM169.13 24.4481H196.354C200.738 24.4481 204.305 28.1441 204.305 32.6871V32.9365H169.13V24.4481ZM169.13 64.8934V40.4263H201.242L207.145 64.8934H169.13ZM65.2908 144.786C56.6558 144.786 49.6306 137.506 49.6306 128.558C49.6306 119.609 56.6558 112.329 65.2908 112.329C73.9257 112.329 80.9509 119.609 80.9509 128.558C80.9509 137.506 73.9257 144.786 65.2908 144.786ZM192.499 144.786C183.864 144.786 176.839 137.506 176.839 128.558C176.839 119.609 183.864 112.329 192.499 112.329C201.134 112.329 208.16 119.609 208.16 128.558C208.16 137.506 201.134 144.786 192.499 144.786ZM223.579 96.8502H219.483C217.225 96.8502 215.387 94.9461 215.387 92.6057V88.3613H223.579V96.8502H223.579Z" fill="#7D6B24"/>
<path d="M65.291 120.818C61.1726 120.818 57.8223 124.29 57.8223 128.558C57.8223 132.826 61.1726 136.297 65.291 136.297C69.4095 136.297 72.7598 132.826 72.7598 128.558C72.7598 124.29 69.4095 120.818 65.291 120.818Z" fill="#7D6B24"/>
<path d="M192.499 120.818C188.381 120.818 185.03 124.29 185.03 128.558C185.03 132.826 188.381 136.297 192.499 136.297C196.618 136.297 199.968 132.826 199.968 128.558C199.968 124.29 196.618 120.818 192.499 120.818Z" fill="#7D6B24"/>
<path d="M150.097 104.84H96.1294C94.1337 104.84 92.5154 106.516 92.5154 108.585C92.5154 110.653 94.1333 112.33 96.1294 112.33H150.097C152.092 112.33 153.711 110.653 153.711 108.585C153.711 106.516 152.093 104.84 150.097 104.84Z" fill="#7D6B24"/>
<path d="M57.5818 88.8608H11.324C9.32831 88.8608 7.70996 90.5375 7.70996 92.6061C7.70996 94.6747 9.32786 96.3513 11.324 96.3513H57.5818C59.5774 96.3513 61.1958 94.6747 61.1958 92.6061C61.1958 90.5375 59.5774 88.8608 57.5818 88.8608Z" fill="#7D6B24"/>
<path d="M125.668 38.0272C124.257 36.5651 121.969 36.5651 120.558 38.0277L88.4196 71.3309L71.701 54.0059C70.2895 52.5433 68.0013 52.5433 66.5903 54.0059C65.1789 55.4686 65.1789 57.8393 66.5903 59.302L85.8645 79.2752C86.57 80.0068 87.495 80.3721 88.4196 80.3721C89.3441 80.3721 90.2696 80.0068 90.9747 79.2752L125.668 43.3237C127.079 41.8606 127.079 39.4899 125.668 38.0272Z" fill="#7D6B24"/>
</svg>
