<svg width="198" height="206" viewBox="0 0 198 206" fill="none" xmlns="http://www.w3.org/2000/svg">
<path d="M166.742 108.226H138.569C142.344 102.689 145.05 96.2942 145.05 88.7531C145.05 73.1789 134.369 60.145 119.183 60.145C111.747 60.145 104.772 63.5692 99 69.9327C93.2285 63.5692 86.2533 60.145 78.8168 60.145C63.6114 60.145 52.9503 73.2014 52.9503 88.7531C52.9503 96.2942 55.6561 102.689 59.4305 108.226H31.2584L7.80261 86.1291L0 95.0237L23.2164 116.895V205.189H174.784V116.895L198 95.0237L190.197 86.1295L166.742 108.226ZM64.5498 88.7535C64.5498 80.5105 69.4506 72.1656 78.8168 72.1656C85.9722 72.1656 91.081 78.0387 94.1069 82.9654L99 90.9324L103.893 82.9654C106.919 78.0387 112.028 72.1656 119.183 72.1656C128.55 72.1656 133.45 80.5105 133.45 88.7535C133.45 94.952 130.494 100.698 123.345 108.226H74.6549C67.5057 100.697 64.5498 94.952 64.5498 88.7535ZM163.184 193.169H34.816V120.246H163.184V193.169Z" fill="#7D6B24"/>
<path d="M93.2002 24.0842H104.8V48.1245H93.2002V24.0842Z" fill="#7D6B24"/>
<path d="M50.4775 39.167L60.5227 33.1568L72.1222 53.9762L62.077 59.9864L50.4775 39.167Z" fill="#7D6B24"/>
<path d="M20.7573 74.3665L26.5571 63.9569L46.6475 75.9772L40.8477 86.3868L20.7573 74.3665Z" fill="#7D6B24"/>
<path d="M125.875 53.9806L137.475 33.1614L147.52 39.1716L135.92 59.9907L125.875 53.9806Z" fill="#7D6B24"/>
<path d="M151.347 75.9745L171.437 63.9542L177.237 74.3638L157.146 86.3841L151.347 75.9745Z" fill="#7D6B24"/>
<path d="M194.908 11.5035L197.973 6.40175L188.127 0.0478516L185.062 5.14964C183.079 8.4492 181.107 8.88994 176.834 9.57229C172.319 10.2935 166.135 11.2812 161.354 18.2549C156.603 25.1838 157.626 31.4459 158.373 36.0188C159.045 40.1278 159.262 42.0606 157.374 44.8148L154.015 49.7143L163.471 56.676L166.83 51.7766C171.58 44.8477 170.557 38.5852 169.81 34.0127C169.139 29.9033 168.922 27.9709 170.81 25.2166C172.671 22.5013 174.544 22.1002 178.601 21.4523C183.423 20.6822 190.026 19.6272 194.908 11.5035Z" fill="#7D6B24"/>
<path d="M36.7641 18.0826C31.9878 11.1834 25.7492 10.1044 21.1937 9.31624C16.8612 8.56698 14.863 8.10701 12.893 5.05468L9.66838 0.059082L0.0268555 6.74192L3.25114 11.7375C8.09162 19.2365 14.5607 20.3556 19.284 21.1726C23.3837 21.8818 25.4387 22.3441 27.3391 25.0896C29.2395 27.8346 29.0307 29.7682 28.3776 33.8803C27.6511 38.4564 26.6555 44.7238 31.4368 51.6298L34.8173 56.5132L44.2423 49.5066L40.8614 44.6232C38.961 41.8782 39.1698 39.9445 39.8229 35.832C40.5502 31.2563 41.5454 24.989 36.7641 18.0826Z" fill="#7D6B24"/>
</svg>
