<svg width="35" height="57" viewBox="0 0 35 57" fill="none" xmlns="http://www.w3.org/2000/svg">
<path d="M32.9558 55.7638C32.254 55.4603 31.4976 55.3037 30.733 55.3037C29.9684 55.3037 29.2119 55.4603 28.5102 55.7638L27.2556 56.3001C26.8245 56.4842 26.3606 56.5791 25.8919 56.5791C25.4232 56.5791 24.9593 56.4842 24.5282 56.3001L23.6191 55.9092C22.8571 55.568 22.0277 55.4038 21.1932 55.429C20.3587 55.4542 19.5407 55.6681 18.8007 56.0547C18.3138 56.3036 17.7748 56.4335 17.2279 56.4335C16.6811 56.4335 16.142 56.3036 15.6551 56.0547L15.5278 55.991C14.8074 55.6272 14.0168 55.4234 13.2103 55.3936C12.4037 55.3638 11.6003 55.5087 10.8549 55.8183L9.61853 56.3365C9.18693 56.5185 8.72325 56.6123 8.25484 56.6123C7.78642 56.6123 7.32275 56.5185 6.89115 56.3365L5.77292 55.7638C5.05719 55.4466 4.28298 55.2827 3.50011 55.2827C2.71723 55.2827 1.94302 55.4466 1.22729 55.7638L0.790909 55.9638L2.2546 52.1091H32.0558L33.5195 55.991L32.9558 55.7638Z" fill="black"/>
<path d="M16.6188 27.7717C16.4969 27.8186 16.3676 27.8433 16.237 27.8445H12.6732C12.3959 27.8445 12.13 27.7343 11.9339 27.5382C11.7379 27.3422 11.6277 27.0762 11.6277 26.799C11.6277 26.5217 11.7379 26.2558 11.9339 26.0597C12.13 25.8636 12.3959 25.7535 12.6732 25.7535H16.037L34.2195 18.6441C34.0744 14.5104 33.3082 10.4221 31.9467 6.51635H25.0283C24.751 6.51635 24.485 6.4062 24.289 6.21013C24.0929 6.01406 23.9828 5.74814 23.9828 5.47085C23.9828 5.19357 24.0929 4.92764 24.289 4.73158C24.485 4.53551 24.751 4.42536 25.0283 4.42536H32.0558L33.5104 0.57066L33.0468 0.770667C32.3315 1.08954 31.5571 1.25433 30.7739 1.25433C29.9908 1.25433 29.2164 1.08954 28.5011 0.770667L27.3829 0.279739C26.9519 0.0951679 26.488 0 26.0192 0C25.5504 0 25.0865 0.0951679 24.6555 0.279739L23.4282 0.797941C22.6834 1.10997 21.8797 1.25614 21.0727 1.22632C20.2658 1.19649 19.475 0.991369 18.7553 0.625207L18.6189 0.561568C18.133 0.314817 17.5957 0.186215 17.0507 0.186215C16.5057 0.186215 15.9684 0.314817 15.4824 0.561568C14.7422 0.947492 13.9243 1.16104 13.0899 1.18623C12.2555 1.21142 11.4262 1.0476 10.6641 0.707028L9.75493 0.316104C9.32411 0.131015 8.86013 0.035564 8.39124 0.035564C7.92235 0.035564 7.45836 0.131015 7.02755 0.316104L5.76386 0.86158C5.06309 1.16273 4.30834 1.31803 3.54559 1.31803C2.78285 1.31803 2.0281 1.16273 1.32732 0.86158L0.754575 0.607025L2.291 4.42536H22.5918C22.8691 4.42536 23.135 4.53551 23.3311 4.73158C23.5271 4.92764 23.6373 5.19357 23.6373 5.47085C23.6373 5.74814 23.5271 6.01406 23.3311 6.21013C23.135 6.4062 22.8691 6.51635 22.5918 6.51635H2.30918C0.780225 10.8815 -0.000482177 15.4735 2.2342e-07 20.0987V25.7535H9.27309C9.55038 25.7535 9.8163 25.8636 10.0124 26.0597C10.2084 26.2558 10.3186 26.5217 10.3186 26.799C10.3186 27.0762 10.2084 27.3422 10.0124 27.5382C9.8163 27.7343 9.55038 27.8445 9.27309 27.8445H2.2342e-07V36.463C0.00122143 41.0783 0.778766 45.6606 2.30009 50.0181H31.9194C33.4448 45.6491 34.2224 41.0542 34.2195 36.4266V20.926L16.6188 27.7717ZM3.65469 15.4712C3.56512 15.576 3.44889 15.6545 3.31831 15.6985C3.12928 15.7861 2.91729 15.8113 2.713 15.7704C2.50871 15.7296 2.32271 15.6248 2.1819 15.4712C2.08445 15.3773 2.0075 15.2641 1.95587 15.139C1.90424 15.0138 1.87905 14.8793 1.88189 14.7439C1.87947 14.6042 1.90417 14.4652 1.95462 14.3348C2.04821 14.1139 2.21493 13.9319 2.42681 13.8193C2.6387 13.7068 2.88285 13.6705 3.1183 13.7166C3.18634 13.7294 3.25323 13.7476 3.31831 13.7712L3.50014 13.8712C3.55931 13.9033 3.61177 13.9466 3.65469 13.9985C3.7517 14.0947 3.82892 14.2089 3.88197 14.3348C3.93531 14.4647 3.96309 14.6036 3.96379 14.7439C3.96438 14.8798 3.93727 15.0144 3.88413 15.1394C3.83099 15.2645 3.75292 15.3774 3.65469 15.4712V15.4712ZM8.31851 9.78011H5.18202L4.44563 12.2802C4.38116 12.4954 4.24908 12.6842 4.06896 12.8184C3.88884 12.9527 3.67025 13.0254 3.44559 13.0257C3.34375 13.0275 3.24233 13.0121 3.14558 12.9802C3.01388 12.9426 2.89095 12.8793 2.78388 12.7939C2.67681 12.7085 2.58773 12.6027 2.52179 12.4826C2.45585 12.3626 2.41436 12.2307 2.39971 12.0945C2.38507 11.9583 2.39755 11.8206 2.43646 11.6893L3.40013 8.43461C3.4646 8.21939 3.59668 8.03067 3.7768 7.89639C3.95693 7.76212 4.17551 7.68944 4.40017 7.68912H8.31851C8.45581 7.68912 8.59176 7.71616 8.7186 7.76871C8.84545 7.82125 8.9607 7.89826 9.05779 7.99534C9.15487 8.09242 9.23188 8.20768 9.28442 8.33452C9.33696 8.46137 9.36401 8.59732 9.36401 8.73462C9.36401 8.87191 9.33696 9.00787 9.28442 9.13471C9.23188 9.26156 9.15487 9.37681 9.05779 9.47389C8.9607 9.57098 8.84545 9.64799 8.7186 9.70053C8.59176 9.75307 8.45581 9.78011 8.31851 9.78011V9.78011ZM19.9371 48.0907C19.8426 48.1939 19.7239 48.272 19.5917 48.318C19.469 48.3749 19.3359 48.4058 19.2008 48.4089C19.0617 48.4077 18.9242 48.3789 18.7962 48.3243C18.6683 48.2697 18.5524 48.1903 18.4553 48.0907C18.3111 47.9438 18.2134 47.7576 18.1746 47.5554C18.1358 47.3533 18.1575 47.1442 18.2371 46.9543C18.2903 46.8307 18.3641 46.7169 18.4553 46.6179C18.6021 46.4737 18.7872 46.3747 18.9887 46.3328C19.1902 46.2909 19.3995 46.3078 19.5917 46.3816C19.7215 46.4322 19.8393 46.5096 19.9371 46.6088C20.1319 46.8048 20.2428 47.0689 20.2463 47.3452C20.2477 47.4839 20.2211 47.6215 20.168 47.7496C20.1148 47.8777 20.0363 47.9938 19.9371 48.0907V48.0907ZM32.6104 41.6086L31.0467 47.618C30.9899 47.8422 30.8596 48.041 30.6768 48.1827C30.4939 48.3244 30.2689 48.4008 30.0375 48.3998H22.5918C22.3145 48.3998 22.0486 48.2897 21.8525 48.0936C21.6565 47.8975 21.5463 47.6316 21.5463 47.3543C21.5463 47.077 21.6565 46.8111 21.8525 46.615C22.0486 46.419 22.3145 46.3088 22.5918 46.3088H29.2284L30.5921 41.0904C30.6163 40.9478 30.6698 40.8118 30.7492 40.6909C30.8287 40.5701 30.9323 40.467 31.0537 40.3883C31.175 40.3095 31.3113 40.2568 31.454 40.2334C31.5968 40.2101 31.7428 40.2166 31.8829 40.2525C32.023 40.2885 32.1541 40.3532 32.2679 40.4424C32.3818 40.5316 32.4758 40.6435 32.5442 40.771C32.6126 40.8984 32.6538 41.0387 32.6651 41.1829C32.6765 41.327 32.6579 41.472 32.6104 41.6086V41.6086Z" fill="black"/>
</svg>
