<svg width="65" height="70" viewBox="0 0 65 70" fill="none" xmlns="http://www.w3.org/2000/svg">
<path d="M58.8338 48.9616C57.0178 49.6154 54.0396 50.4144 50.7709 51.1408C49.6087 53.0294 47.5022 54.6275 44.1608 55.2812C43.3618 55.4265 42.4901 55.4991 41.5458 55.4991C39.2214 55.5718 36.5337 55.3538 33.4829 55.0633C33.265 55.0633 33.0471 55.0633 32.8292 54.9906C32.1028 54.918 31.449 54.3369 31.3764 53.6105C31.3038 52.6662 32.1028 51.9398 32.9745 52.0125C33.1924 52.0125 33.4829 52.0851 33.7008 52.0851C37.6233 52.4483 41.2553 52.7388 43.5797 52.303C47.8654 51.504 49.1002 48.889 48.8097 46.7098C48.5918 44.8939 47.2843 43.2232 45.1051 43.3685C42.0543 43.5864 38.495 43.3685 35.081 43.0779C31.1585 42.7874 27.0907 42.7147 24.1852 43.0053C20.9891 43.3685 14.4516 45.7655 8.71317 49.6154C5.88027 51.504 2.75681 53.8284 0.868206 55.2086C-0.0760957 55.9349 -0.294011 57.2424 0.432374 58.1867L8.78581 69.0099C9.5122 69.9542 10.8197 70.0995 11.764 69.3731L14.8148 66.976C15.5412 66.3949 16.4855 66.2496 17.3572 66.5402C22.9503 68.3561 28.9793 69.5184 32.9018 69.7363C41.5458 70.3174 58.0348 60.148 62.7563 56.8792C67.4778 53.6105 64.0638 47.073 58.8338 48.9616Z" fill="black"/>
<path d="M37.5507 37.63C47.6474 37.63 55.8556 29.4218 55.8556 19.3251C55.8556 9.22831 47.6474 0.94751 37.5507 0.94751C27.4539 0.94751 19.1731 9.15567 19.1731 19.2524C19.1731 29.3492 27.3813 37.63 37.5507 37.63ZM35.9526 10.1726V7.84818C35.9526 7.63026 36.1705 7.41234 36.3884 7.41234H38.6402C38.8582 7.41234 39.0761 7.63026 39.0761 7.84818V10.1C41.4005 10.2452 43.2165 11.9886 43.4344 14.313C43.4344 14.6036 43.2165 14.8215 42.9986 14.8215H40.7468C40.5288 14.8215 40.3836 14.6762 40.3109 14.4583C40.1656 13.7319 39.5119 13.2234 38.7855 13.2234H36.8243C35.6621 13.2234 34.5725 14.0951 34.4272 15.2573C34.2819 16.5648 35.3715 17.727 36.679 17.727H38.3497C41.4731 17.727 44.0155 20.4146 43.7249 23.6107C43.507 26.0805 41.4731 27.9691 39.0761 28.3323V30.6567C39.0761 30.8746 38.8582 31.0925 38.6402 31.0925H36.3884C36.1705 31.0925 35.9526 30.8746 35.9526 30.6567V28.4049C33.6282 28.2596 31.8122 26.5163 31.5943 24.1919C31.5943 23.9013 31.8122 23.756 32.0301 23.756H34.2819C34.4998 23.756 34.6451 23.9013 34.7178 24.1192C34.863 24.8456 35.5168 25.3541 36.2432 25.3541H38.2044C39.3666 25.3541 40.4562 24.4824 40.6015 23.3202C40.7468 22.0127 39.6572 20.8505 38.3497 20.8505H36.8969C34.064 20.8505 31.5943 18.8166 31.3037 15.9837C31.0132 13.0782 33.1197 10.5358 35.9526 10.1726Z" fill="black"/>
</svg>
