<svg width="199" height="207" viewBox="0 0 199 207" fill="none" xmlns="http://www.w3.org/2000/svg">
<path d="M27.9292 168.44L46.6406 178.133V202.226C46.6406 204.451 48.3811 206.254 50.5273 206.254H91.7266C93.8728 206.254 95.6133 204.451 95.6133 202.226V147.228C95.6133 134.888 86.6804 124.655 74.8617 123.427C74.8158 123.414 58.4209 120.762 50.8146 112.879L42.0858 103.838C39.149 100.794 35.2452 99.1172 31.0938 99.1172V66.8957C31.0938 58.0122 24.1194 50.7849 15.5469 50.7849C6.97433 50.7849 0 58.0122 0 66.8957V121.608C0 141.429 10.8043 159.564 27.9292 168.44ZM7.77344 66.8957C7.77344 62.4539 11.2606 58.8403 15.5469 58.8403C19.8331 58.8403 23.3203 62.4539 23.3203 66.8957V101.276C18.5801 104.117 15.5469 109.412 15.5469 115.228C15.5469 119.53 17.1645 123.575 20.1017 126.618L40.0056 147.248C41.5226 148.821 43.9841 148.822 45.5022 147.249C47.02 145.676 47.0204 143.126 45.5026 141.553L25.5987 120.922C24.1295 119.4 23.3203 117.378 23.3203 115.228C23.3203 111.819 25.4024 108.766 28.5021 107.631C28.5033 107.631 28.5044 107.63 28.5056 107.63H28.506C31.1863 106.645 34.366 107.229 36.59 109.534L45.3188 118.576C54.3305 127.914 74.0194 131.428 74.0587 131.439C81.9153 132.256 87.8398 139.043 87.8398 147.228V198.199H54.4141V175.643C54.4141 174.118 53.5819 172.723 52.2655 172.041L31.4059 161.235C16.8291 153.68 7.77344 138.496 7.77344 121.608V66.8957Z" fill="#7D6B24"/>
<path d="M52.8594 99.1172H146.141C148.287 99.1172 150.027 97.314 150.027 95.0895V4.06405C150.027 1.83957 148.287 0.036377 146.141 0.036377H52.8594C50.7131 0.036377 48.9727 1.83957 48.9727 4.06405V95.0895C48.9727 97.314 50.7131 99.1172 52.8594 99.1172ZM87.8398 8.09173H111.16V29.7981L101.064 24.6205C99.9683 24.0578 98.6795 24.0639 97.5881 24.6354L87.8398 29.7385V8.09173ZM56.7461 8.09173H80.0664V36.2855C80.0664 37.6843 80.7668 38.9832 81.9169 39.7162C83.0662 40.4489 84.5012 40.5113 85.7056 39.8806L99.3585 32.7334L113.323 39.8955C114.507 40.5028 115.936 40.4549 117.097 39.7074C118.239 38.9723 118.934 37.6782 118.934 36.2855V8.09173H142.254V91.0618H56.7461V8.09173Z" fill="#7D6B24"/>
<path d="M130.594 70.9231H107.273C105.127 70.9231 103.387 72.7264 103.387 74.951C103.387 77.1757 105.127 78.979 107.273 78.979H130.594C132.74 78.979 134.48 77.1757 134.48 74.951C134.48 72.7264 132.74 70.9231 130.594 70.9231Z" fill="#7D6B24"/>
<path d="M178.4 162.755C180.547 162.755 182.287 160.951 182.287 158.727C182.287 156.503 180.547 154.699 178.4 154.699C176.254 154.699 174.514 156.503 174.514 158.727C174.514 160.951 176.254 162.755 178.4 162.755Z" fill="#7D6B24"/>
<path d="M183.453 50.7849C174.881 50.7849 167.906 58.0122 167.906 66.8957V99.1172C163.755 99.1172 159.851 100.794 156.915 103.836L148.185 112.879C143.404 117.834 131.293 122.682 124.426 123.395L124.166 123.424C112.32 124.655 103.387 134.888 103.387 147.228V202.226C103.387 204.451 105.127 206.254 107.273 206.254H148.473C150.619 206.254 152.359 204.451 152.359 202.226V178.133L165.081 171.543C167 170.548 167.779 168.129 166.819 166.139C165.86 164.15 163.526 163.343 161.605 164.337L146.735 172.04C145.418 172.723 144.586 174.118 144.586 175.643V198.199H111.16V147.228C111.16 139.043 117.085 132.256 124.969 131.436L125.229 131.407C133.66 130.531 147.619 124.857 153.68 118.576L162.411 109.533C164.636 107.228 167.818 106.647 170.494 107.63H170.494C170.496 107.63 170.497 107.631 170.498 107.631C175.85 109.591 177.462 116.714 173.402 120.923L153.498 141.553C151.98 143.126 151.98 145.676 153.498 147.249C155.016 148.821 157.477 148.822 158.995 147.249L178.899 126.619C186.084 119.172 184.587 106.614 175.68 101.276V66.8957C175.68 62.4539 179.167 58.8403 183.454 58.8403C187.74 58.8403 191.227 62.4539 191.227 66.8957V121.608C191.227 128.977 189.432 136.293 186.037 142.765C185.011 144.719 185.709 147.164 187.595 148.227C189.481 149.289 191.841 148.566 192.866 146.612C196.879 138.964 199 130.317 199 121.608V66.8957C199 58.0122 192.026 50.7849 183.453 50.7849Z" fill="#7D6B24"/>
</svg>
