<svg width="47" height="49" viewBox="0 0 47 49" fill="none" xmlns="http://www.w3.org/2000/svg">
<path d="M47 24.5605C47 11.377 36.4786 0.689453 23.5 0.689453C10.5214 0.689453 0 11.377 0 24.5605C0 31.4645 2.88909 37.6805 7.50167 42.0389L7.50214 42.0394C7.75124 42.2747 8.00551 42.5034 8.26448 42.7278C8.28328 42.744 8.30208 42.7612 8.32088 42.7775C8.56622 42.9885 8.81673 43.1938 9.07053 43.3943C9.10578 43.422 9.14056 43.4506 9.17581 43.4783C9.41786 43.6679 9.66414 43.8517 9.91371 44.0316C9.96447 44.0679 10.0143 44.1052 10.0651 44.141C10.3043 44.3105 10.5468 44.4752 10.7921 44.6356C10.857 44.6781 10.9219 44.721 10.9877 44.7631C11.2236 44.9144 11.4628 45.061 11.7044 45.2037C11.7838 45.2505 11.8633 45.2973 11.9432 45.3431C12.1753 45.4768 12.4099 45.6062 12.6472 45.7322C12.7412 45.7819 12.8357 45.831 12.9302 45.8793C13.1581 45.9962 13.3875 46.1099 13.6197 46.2192C13.7287 46.2707 13.8382 46.3204 13.9482 46.3701C14.171 46.4708 14.3947 46.5696 14.6212 46.6632C14.7448 46.7143 14.8694 46.7634 14.9939 46.8126C15.2116 46.8986 15.4296 46.9831 15.6501 47.0623C15.7887 47.1124 15.9288 47.1588 16.0688 47.206C16.2799 47.2776 16.4909 47.3483 16.7047 47.4137C16.8594 47.461 17.0154 47.5039 17.1714 47.5483C17.375 47.6061 17.5785 47.6643 17.7843 47.7169C17.9549 47.7603 18.1274 47.798 18.2995 47.8376C18.495 47.8825 18.6896 47.9288 18.887 47.9689C19.0754 48.0071 19.2658 48.0386 19.4561 48.0721C19.6413 48.1045 19.8251 48.1399 20.0117 48.168C20.2222 48.2 20.4356 48.2239 20.648 48.2501C20.8177 48.2711 20.986 48.2955 21.1566 48.3127C21.4047 48.3375 21.6552 48.3533 21.9053 48.3704C22.0439 48.38 22.1807 48.3938 22.3198 48.401C22.7104 48.4211 23.1038 48.4316 23.5 48.4316C23.8962 48.4316 24.2896 48.4211 24.6806 48.401C24.8198 48.3938 24.957 48.38 25.0952 48.3704C25.3452 48.3533 25.5957 48.3375 25.8439 48.3127C26.0145 48.2955 26.1828 48.2711 26.3524 48.2501C26.5649 48.2239 26.7783 48.2 26.9888 48.168C27.1754 48.1399 27.3592 48.1045 27.5443 48.0721C27.7342 48.0386 27.9251 48.0071 28.1135 47.9689C28.3109 47.9288 28.5055 47.8825 28.701 47.8376C28.873 47.798 29.0455 47.7603 29.2161 47.7169C29.422 47.6648 29.625 47.6061 29.829 47.5483C29.9846 47.5039 30.1411 47.461 30.2957 47.4137C30.5096 47.3483 30.7206 47.2772 30.9316 47.2055C31.0712 47.1583 31.2113 47.112 31.3499 47.0618C31.5708 46.9821 31.7889 46.8976 32.007 46.8117C32.1311 46.7625 32.2556 46.7138 32.3788 46.6627C32.6053 46.5687 32.8295 46.4698 33.0523 46.3691C33.1618 46.3194 33.2718 46.2698 33.3803 46.2182C33.6125 46.1089 33.8419 45.9953 34.0698 45.8783C34.1643 45.8301 34.2583 45.7809 34.3523 45.7313C34.5896 45.6052 34.8246 45.4758 35.0568 45.3422C35.1367 45.2963 35.2157 45.25 35.2951 45.2032C35.5367 45.0605 35.7759 44.9139 36.0123 44.7626C36.0777 44.7206 36.1425 44.6781 36.2074 44.6356C36.4532 44.4747 36.6962 44.31 36.9354 44.1405C36.9857 44.1047 37.0355 44.0679 37.0858 44.0321C37.3359 43.8521 37.5826 43.6679 37.8251 43.4783C37.8604 43.4506 37.8947 43.4225 37.9295 43.3948C38.1837 43.1938 38.4342 42.9885 38.6796 42.777C38.6984 42.7607 38.7167 42.744 38.7355 42.7278C38.9945 42.5034 39.2492 42.2743 39.4988 42.0389C44.1109 37.6805 47 31.4645 47 24.5605ZM23.5 3.07656C35.1621 3.07656 44.65 12.7143 44.65 24.5605C44.65 29.2841 43.138 33.6539 40.5845 37.204C40.0191 32.4494 34.8162 28.536 27.8945 27.3515C31.3669 25.6786 33.7686 22.086 33.7686 17.9229C33.7686 12.1624 29.171 7.49223 23.5 7.49223C17.829 7.49223 13.2314 12.1624 13.2314 17.9229C13.2314 22.086 15.6331 25.6786 19.1055 27.3515C12.1838 28.536 6.98091 32.4494 6.4155 37.204C3.86199 33.6539 2.35 29.2841 2.35 24.5605C2.35 12.7143 11.8379 3.07656 23.5 3.07656Z" fill="#1F3975"/>
<path d="M47 24.5605C47 11.377 36.4786 0.689453 23.5 0.689453C10.5214 0.689453 0 11.377 0 24.5605C0 31.4645 2.88909 37.6805 7.50167 42.0389L7.50214 42.0394C7.75124 42.2747 8.00551 42.5034 8.26448 42.7278C8.28328 42.744 8.30208 42.7612 8.32088 42.7775C8.56622 42.9885 8.81673 43.1938 9.07053 43.3943C9.10578 43.422 9.14056 43.4506 9.17581 43.4783C9.41786 43.6679 9.66414 43.8517 9.91371 44.0316C9.96447 44.0679 10.0143 44.1052 10.0651 44.141C10.3043 44.3105 10.5468 44.4752 10.7921 44.6356C10.857 44.6781 10.9219 44.721 10.9877 44.7631C11.2236 44.9144 11.4628 45.061 11.7044 45.2037C11.7838 45.2505 11.8633 45.2973 11.9432 45.3431C12.1753 45.4768 12.4099 45.6062 12.6472 45.7322C12.7412 45.7819 12.8357 45.831 12.9302 45.8793C13.1581 45.9962 13.3875 46.1099 13.6197 46.2192C13.7287 46.2707 13.8382 46.3204 13.9482 46.3701C14.171 46.4708 14.3947 46.5696 14.6212 46.6632C14.7448 46.7143 14.8694 46.7634 14.9939 46.8126C15.2116 46.8986 15.4296 46.9831 15.6501 47.0623C15.7887 47.1124 15.9288 47.1588 16.0688 47.206C16.2799 47.2776 16.4909 47.3483 16.7047 47.4137C16.8594 47.461 17.0154 47.5039 17.1714 47.5483C17.375 47.6061 17.5785 47.6643 17.7843 47.7169C17.9549 47.7603 18.1274 47.798 18.2995 47.8376C18.495 47.8825 18.6896 47.9288 18.887 47.9689C19.0754 48.0071 19.2658 48.0386 19.4561 48.0721C19.6413 48.1045 19.8251 48.1399 20.0117 48.168C20.2222 48.2 20.4356 48.2239 20.648 48.2501C20.8177 48.2711 20.986 48.2955 21.1566 48.3127C21.4047 48.3375 21.6552 48.3533 21.9053 48.3704C22.0439 48.38 22.1807 48.3938 22.3198 48.401C22.7104 48.4211 23.1038 48.4316 23.5 48.4316C23.8962 48.4316 24.2896 48.4211 24.6806 48.401C24.8198 48.3938 24.957 48.38 25.0952 48.3704C25.3452 48.3533 25.5957 48.3375 25.8439 48.3127C26.0145 48.2955 26.1828 48.2711 26.3524 48.2501C26.5649 48.2239 26.7783 48.2 26.9888 48.168C27.1754 48.1399 27.3592 48.1045 27.5443 48.0721C27.7342 48.0386 27.9251 48.0071 28.1135 47.9689C28.3109 47.9288 28.5055 47.8825 28.701 47.8376C28.873 47.798 29.0455 47.7603 29.2161 47.7169C29.422 47.6648 29.625 47.6061 29.829 47.5483C29.9846 47.5039 30.1411 47.461 30.2957 47.4137C30.5096 47.3483 30.7206 47.2772 30.9316 47.2055C31.0712 47.1583 31.2113 47.112 31.3499 47.0618C31.5708 46.9821 31.7889 46.8976 32.007 46.8117C32.1311 46.7625 32.2556 46.7138 32.3788 46.6627C32.6053 46.5687 32.8295 46.4698 33.0523 46.3691C33.1618 46.3194 33.2718 46.2698 33.3803 46.2182C33.6125 46.1089 33.8419 45.9953 34.0698 45.8783C34.1643 45.8301 34.2583 45.7809 34.3523 45.7313C34.5896 45.6052 34.8246 45.4758 35.0568 45.3422C35.1367 45.2963 35.2157 45.25 35.2951 45.2032C35.5367 45.0605 35.7759 44.9139 36.0123 44.7626C36.0777 44.7206 36.1425 44.6781 36.2074 44.6356C36.4532 44.4747 36.6962 44.31 36.9354 44.1405C36.9857 44.1047 37.0355 44.0679 37.0858 44.0321C37.3359 43.8521 37.5826 43.6679 37.8251 43.4783C37.8604 43.4506 37.8947 43.4225 37.9295 43.3948C38.1837 43.1938 38.4342 42.9885 38.6796 42.777C38.6984 42.7607 38.7167 42.744 38.7355 42.7278C38.9945 42.5034 39.2492 42.2743 39.4988 42.0389C44.1109 37.6805 47 31.4645 47 24.5605ZM23.5 3.07656C35.1621 3.07656 44.65 12.7143 44.65 24.5605C44.65 29.2841 43.138 33.6539 40.5845 37.204C40.0191 32.4494 34.8162 28.536 27.8945 27.3515C31.3669 25.6786 33.7686 22.086 33.7686 17.9229C33.7686 12.1624 29.171 7.49223 23.5 7.49223C17.829 7.49223 13.2314 12.1624 13.2314 17.9229C13.2314 22.086 15.6331 25.6786 19.1055 27.3515C12.1838 28.536 6.98091 32.4494 6.4155 37.204C3.86199 33.6539 2.35 29.2841 2.35 24.5605C2.35 12.7143 11.8379 3.07656 23.5 3.07656Z" fill="url(#paint0_linear)"/>
<defs>
<linearGradient id="paint0_linear" x1="23.5" y1="-30.6839" x2="23.5" y2="42.9412" gradientUnits="userSpaceOnUse">
<stop stop-color="white"/>
<stop offset="1" stop-color="white" stop-opacity="0"/>
</linearGradient>
</defs>
</svg>
