<svg width="60" height="79" viewBox="0 0 60 79" fill="none" xmlns="http://www.w3.org/2000/svg">
<path fill-rule="evenodd" clip-rule="evenodd" d="M33.5296 13.8417L30.0946 11.7981L21.6193 16.8087L26.6113 21.0314C29.0152 18.5699 31.2736 16.2065 33.5296 13.8417ZM13.7125 21.4831C13.9451 21.8029 14.2202 22.0906 14.5309 22.3379L24.0669 30.4068C24.9105 31.1207 25.9919 31.4911 27.0961 31.4444C28.2003 31.3977 29.2465 30.9373 30.0268 30.1547C34.0076 26.1654 37.4088 22.5829 40.7903 19.0212C40.9642 18.838 41.1381 18.6549 41.312 18.4717L60 29.5899L29.9054 47.3817L0 29.5899L13.7125 21.4831Z" fill="black"/>
<path d="M46.1326 2.82594L46.1261 2.83251C42.0788 6.88861 38.6055 10.53 35.1385 14.1649C32.7154 16.7053 30.2953 19.2425 27.6844 21.9159L26.7087 22.915L25.6425 22.0131L19.247 16.6033L19.2296 16.5886L19.2127 16.5733C18.9239 16.3136 18.5859 16.1145 18.2188 15.9878C17.8516 15.8611 17.4627 15.8094 17.0753 15.8358C16.6878 15.8621 16.3095 15.966 15.9629 16.1413C15.6163 16.3166 15.3084 16.5596 15.0575 16.8561L13.9205 15.8937L15.0575 16.8561C14.8065 17.1525 14.6177 17.4963 14.5021 17.8671C14.3865 18.2379 14.3465 18.6282 14.3845 19.0147C14.4225 19.4012 14.5378 19.7762 14.7234 20.1174C14.909 20.4586 15.1612 20.759 15.4651 21.0009L15.4826 21.0149L15.4998 21.0294L25.0357 29.0982C25.5919 29.5688 26.3047 29.813 27.0326 29.7822C27.7605 29.7514 28.4502 29.4479 28.9646 28.9321L28.965 28.9317C32.9078 24.9804 36.2807 21.429 39.6434 17.8871L39.7069 17.8202C43.0465 14.3026 46.3802 10.7913 50.2375 6.92566L50.2431 6.92004L50.2488 6.91449C50.6652 6.50593 50.9487 5.98137 51.0625 5.40924C51.1763 4.83709 51.115 4.24396 50.8866 3.70719C50.6581 3.1704 50.2732 2.71492 49.7821 2.4002C49.2911 2.08558 48.7167 1.9262 48.1338 1.94283L46.1326 2.82594ZM46.1326 2.82594L46.1391 2.81928M46.1326 2.82594L46.1391 2.81928M46.1391 2.81928C46.6648 2.27927 47.3799 1.96496 48.1332 1.94285L46.1391 2.81928Z" stroke="black" stroke-width="3"/>
<path fill-rule="evenodd" clip-rule="evenodd" d="M30.0946 47.3816L59.9442 29.5898L59.9442 62.9021L30.0946 77.9372V78.0441L29.9722 77.9906L29.8497 78.0441V77.9372L0 62.9021L7.94227e-06 29.5898L30.0946 47.3816ZM9.4637 65.4115V41.6484C9.4637 38.8469 12.5253 37.1212 14.922 38.5719C15.9985 39.2234 16.6561 40.3902 16.6561 41.6484V65.4115C16.6561 68.0849 13.8428 69.8236 11.4516 68.6281C10.2333 68.0189 9.4637 66.7736 9.4637 65.4115ZM50.347 41.6484V65.4115C50.347 66.7736 49.5774 68.0189 48.359 68.6281C45.9679 69.8236 43.1545 68.0849 43.1545 65.4115V41.6484C43.1545 40.3902 43.8122 39.2234 44.8886 38.5719C47.2853 37.1212 50.347 38.8469 50.347 41.6484Z" fill="black"/>
<path d="M50.3469 65.033V41.2699C50.3469 38.4684 47.2853 36.7427 44.8886 38.1934C43.8121 38.8449 43.1545 40.0117 43.1545 41.2699V65.033C43.1545 67.7064 45.9679 69.4451 48.359 68.2495C49.5773 67.6404 50.3469 66.3951 50.3469 65.033Z" stroke="black" stroke-width="2"/>
<path d="M9.46375 65.033V41.2699C9.46375 38.4684 12.5254 36.7427 14.9221 38.1934C15.9985 38.8449 16.6562 40.0117 16.6562 41.2699V65.033C16.6562 67.7064 13.8428 69.4451 11.4517 68.2495C10.2333 67.6404 9.46375 66.3951 9.46375 65.033Z" stroke="black" stroke-width="2"/>
</svg>
