<svg width="95" height="48" viewBox="0 0 95 48" fill="none" xmlns="http://www.w3.org/2000/svg">
<path d="M21.6 26.8H0.6C0.3 26.8 0 27.1 0 27.4V31C0 31.3 0.3 31.6 0.6 31.6H21.6C21.9 31.6 22.2 31.3 22.2 31V27.4C22.2 27.1 21.9 26.8 21.6 26.8Z" fill="black"/>
<path d="M21.6 17.2H6.69998C6.39998 17.2 6.09998 17.5 6.09998 17.8V21.4C6.09998 21.7 6.39998 22 6.69998 22H21.6C21.9 22 22.2 21.7 22.2 21.4V17.8C22.2 17.4 21.9 17.2 21.6 17.2Z" fill="black"/>
<path d="M21.6 7.5H12.7C12.4 7.5 12.1 7.8 12.1 8.1V11.7C12.1 12 12.4 12.3 12.7 12.3H21.6C21.9 12.3 22.2 12 22.2 11.7V8.1C22.2 7.8 21.9 7.5 21.6 7.5Z" fill="black"/>
<path d="M94.1 23.2L89.7 9.9C89.3 8.7 88.1 7.8 86.8 7.8H73.2V1.4C73.2 0.6 72.6 0 71.9 0H28.9C28.2 0 27.6 0.6 27.6 1.4V37.8C27.6 38.5 28.2 39.1 28.9 39.1H35.5C35.5 43.9 39.4 47.7 44.1 47.7C48.8 47.7 52.7 43.8 52.7 39.1H69.8C69.8 43.9 73.7 47.7 78.4 47.7C83.1 47.7 87 43.8 87 39.1H93.5C94.3 39.1 95 38.4 95 37.6V29C95 27 94.7 25.1 94.1 23.2ZM44.1 43.2C41.9 43.2 40 41.4 40 39.1C40 36.9 41.8 35 44.1 35C46.3 35 48.2 36.8 48.2 39.1C48.2 41.4 46.4 43.2 44.1 43.2ZM78.5 43.2C76.3 43.2 74.4 41.4 74.4 39.1C74.4 36.9 76.2 35 78.5 35C80.8 35 82.5 36.9 82.5 39.1C82.5 41.4 80.7 43.2 78.5 43.2ZM87.9 21.5H74.5C73.8 21.5 73.3 21 73.3 20.3V13.6C73.3 12.9 73.8 12.4 74.5 12.4H84.8C85.3 12.4 85.8 12.7 86 13.2L88.5 20.7C88.6 21.1 88.3 21.5 87.9 21.5Z" fill="black"/>
</svg>
