<svg width="180" height="207" viewBox="0 0 180 207" fill="none" xmlns="http://www.w3.org/2000/svg">
<path d="M132.53 159.956C130.378 159.956 128.632 161.766 128.632 163.996C128.632 166.225 130.378 168.035 132.53 168.035C134.681 168.035 136.428 166.225 136.428 163.996C136.428 161.766 134.681 159.956 132.53 159.956Z" fill="#7D6B24"/>
<path d="M142.127 146.894L123.6 140.496L116.949 126.711C122.941 120.391 127.101 112.029 128.504 103.307L129.334 98.1549H136.427C142.875 98.1549 148.121 92.7188 148.121 86.037V60.5895C148.121 27.1804 121.892 0 89.6523 0C57.3299 0 31.1834 27.1025 31.1834 60.5895V86.037C31.1834 91.3027 34.4425 95.7927 38.9793 97.4602V102.194C38.9793 108.876 44.2251 114.312 50.6731 114.312H54.0962C55.786 118.116 57.9731 121.639 60.6346 124.804C61.1866 125.461 61.7623 126.099 62.352 126.719L55.7045 140.496L37.1773 146.895C15.6354 154.338 0 177.839 0 202.773C0 205.004 1.7451 206.812 3.89793 206.812H175.407C177.559 206.812 179.305 205.004 179.305 202.773C179.305 177.839 163.67 154.338 142.127 146.894ZM140.325 86.037C140.325 88.2643 138.577 90.0763 136.427 90.0763H130.478C131.469 82.1229 132.13 73.6594 132.395 65.3235C132.403 65.0884 132.409 64.8598 132.416 64.6288H140.325V86.037ZM42.8772 90.0763C40.7279 90.0763 38.9793 88.2643 38.9793 86.037V64.6288H46.8913C46.9042 65.05 46.9178 65.4734 46.933 65.8995C46.9334 65.9141 46.9342 65.9282 46.9346 65.9427C46.9346 65.944 46.9346 65.9452 46.9346 65.9464C47.2074 74.054 47.8591 82.2979 48.8274 90.0759H42.8772V90.0763ZM50.6731 106.234C48.5237 106.234 46.7751 104.421 46.7751 102.194V98.1549H49.9707L50.8001 103.309C50.9584 104.288 51.1529 105.264 51.3778 106.234H50.6731ZM46.7818 56.5502H39.1274C41.1017 29.4784 62.9036 8.07859 89.6523 8.07859C116.282 8.07859 138.18 29.4756 140.177 56.5502H132.523C132.243 34.2423 114.713 16.1572 93.1414 16.1572H86.1641C64.5933 16.1572 47.062 34.2423 46.7818 56.5502ZM86.1637 24.2358H93.141C110.607 24.2358 124.744 39.0402 124.734 57.1197C124.734 58.3909 124.724 59.4976 124.703 60.5046C124.703 60.5176 124.703 60.5309 124.703 60.5442L119.827 59.8224C106.582 57.8625 94.0761 51.3827 84.6127 41.5761C83.8815 40.8187 82.8902 40.393 81.8565 40.393C71.3882 40.393 61.3674 45.3355 54.7433 53.6855C56.3757 37.2379 69.7936 24.2358 86.1637 24.2358ZM59.459 106.234C57.5077 99.5069 55.275 79.7143 54.7815 67.0309L60.0277 59.782C64.8459 53.1269 72.342 48.9918 80.316 48.5172C90.8081 58.8643 104.381 65.6972 118.725 67.8194L124.464 68.6693C124.08 77.1053 123.296 85.5709 122.173 93.3566C122.173 93.3591 122.172 93.3619 122.172 93.3647C121.815 95.8679 121.534 97.4787 120.815 101.978C118.75 114.809 109.512 126.412 97.3153 129.572C92.2959 130.87 87.008 130.87 81.9914 129.572C74.376 127.599 67.3932 122.139 62.8868 114.312H70.8331C72.4422 119.013 76.7748 122.391 81.8565 122.391H89.6523C96.1132 122.391 101.346 116.968 101.346 110.273C101.346 103.591 96.1003 98.1549 89.6523 98.1549H81.8565C76.6617 98.1549 72.3931 101.632 70.8265 106.234H59.459ZM81.5287 137.746C84.2023 138.33 86.9281 138.629 89.6523 138.629C91.7849 138.629 93.9178 138.444 96.0266 138.085L89.139 145.633L81.5287 137.746ZM83.7801 151.506L71.4167 165.054C68.013 158.303 65.0884 151.277 62.6896 144.083L67.3324 134.461L83.7801 151.506ZM111.312 133.092L116.614 144.083C114.212 151.288 111.286 158.317 107.886 165.06L94.6534 151.348L111.312 133.092ZM77.9586 110.273C77.9586 108.043 79.7041 106.234 81.8565 106.234H89.6523C91.8017 106.234 93.5503 108.046 93.5503 110.273C93.5503 112.503 91.8044 114.312 89.6523 114.312H81.8565C79.7072 114.312 77.9586 112.5 77.9586 110.273ZM7.95177 198.733C9.49652 178.723 22.3476 160.535 39.6427 154.558L56.0506 148.892C59.0567 157.506 62.7808 165.878 67.1453 173.831C67.1527 173.844 67.1597 173.858 67.1671 173.872C67.1671 173.872 67.1675 173.872 67.1675 173.872C70.3564 179.684 73.9456 185.364 77.8369 190.756L82.6322 198.733H7.95177ZM89.6523 195.133L84.366 186.338C84.3067 186.239 84.2436 186.144 84.1765 186.051C81.02 181.688 78.0755 177.124 75.3937 172.454L89.2949 157.22L103.943 172.399C101.243 177.103 98.2882 181.686 95.1289 186.05C94.9379 186.314 95.2088 185.898 89.6523 195.133ZM96.6725 198.733L101.467 190.757C105.376 185.344 108.991 179.619 112.212 173.738C112.231 173.703 112.249 173.666 112.269 173.631C112.271 173.626 112.274 173.622 112.276 173.618C116.585 165.741 120.27 157.442 123.254 148.892L139.662 154.558C156.957 160.535 169.808 178.723 171.353 198.733H96.6725Z" fill="#7D6B24"/>
<path d="M159.638 182.387C157.033 176.984 153.217 172.183 148.603 168.505C146.897 167.144 144.45 167.475 143.137 169.244C141.824 171.012 142.144 173.548 143.85 174.908C147.535 177.846 150.582 181.681 152.663 185.997C153.627 187.997 155.97 188.801 157.892 187.806C159.818 186.809 160.599 184.383 159.638 182.387Z" fill="#7D6B24"/>
</svg>
