<svg width="65" height="73" viewBox="0 0 65 73" fill="none" xmlns="http://www.w3.org/2000/svg">
<path d="M46.729 38.396C42.557 41.459 37.521 43.115 32.35 43.126C27.172 43.114 22.136 41.458 17.959 38.396C7.817 39.542 0 47.652 0 57.558V65.083C0 70.343 2.568 72.292 7.088 72.255H57.604C62.125 72.292 64.693 70.343 64.693 65.083V57.558C64.693 47.651 56.875 39.536 46.729 38.396Z" fill="white"/>
<path d="M32.35 0C27.375 0 22.61 1.974 19.093 5.49C15.583 9.006 13.61 13.771 13.61 18.74C13.61 23.709 15.583 28.478 19.093 31.99C22.61 35.506 27.375 37.478 32.35 37.478C37.317 37.478 42.083 35.506 45.599 31.99C49.115 28.478 51.088 23.709 51.088 18.74C51.088 13.771 49.114 9.005 45.599 5.49C42.083 1.973 37.317 0 32.35 0Z" fill="white"/>
</svg>
